<svg width="26" height="26" xmlns="http://www.w3.org/2000/svg">
 <g class="layer">
  <title>Layer 1</title>
  <path id="svg_1" fill-rule="evenodd" fill="#0E212F" d="m23.9748,3.1c-0.03,-0.04 -0.07,-0.06 -0.12,-0.06l-3.69,0c-0.07,0 -0.13,0.04 -0.15,0.1l-4.99,16.02l-4.87,-16.01c-0.02,-0.07 -0.08,-0.11 -0.14,-0.11l-3.69,0c-0.05,0 -0.1,0.02 -0.12,0.06c-0.03,0.04 -0.04,0.09 -0.03,0.14l6.09,19.61c0.02,0.06 0.08,0.11 0.14,0.11l5.24,0c0.07,0 0.13,-0.05 0.15,-0.11l6.2,-19.61c0.02,-0.05 0.01,-0.1 -0.02,-0.14zm-18.39,5.85l-3.44,0c-0.08,0 -0.15,0.06 -0.15,0.15l0,13.7c0,0.09 0.07,0.16 0.15,0.16l3.44,0c0.08,0 0.15,-0.07 0.15,-0.16l0,-13.7c0,-0.09 -0.07,-0.15 -0.15,-0.15z" clip-rule="evenodd"/>
 </g>

</svg>